<mxfile host="app.diagrams.net" modified="2023-11-20T07:11:35.211Z" agent="Mozilla/5.0 (Windows NT 10.0; Win64; x64) AppleWebKit/537.36 (KHTML, like Gecko) Chrome/119.0.0.0 Safari/537.36" etag="7IVGW4UoQsQ6n-MbSKyY" version="22.1.3" type="github">
  <diagram id="6I0OCvxSQrVGMHxT2VVA" name="Page-1">
    <mxGraphModel dx="989" dy="600" grid="1" gridSize="10" guides="1" tooltips="1" connect="1" arrows="1" fold="1" page="1" pageScale="1" pageWidth="850" pageHeight="1100" math="0" shadow="0">
      <root>
        <mxCell id="0" />
        <mxCell id="1" parent="0" />
        <mxCell id="UV3fTgyMfEU3kGWm72Cb-1" value="" style="rounded=0;whiteSpace=wrap;html=1;dashed=1;" vertex="1" parent="1">
          <mxGeometry x="15" y="170" width="360" height="200" as="geometry" />
        </mxCell>
        <mxCell id="UV3fTgyMfEU3kGWm72Cb-2" value="数据中心应用和服务" style="text;html=1;align=center;verticalAlign=middle;resizable=0;points=[];autosize=1;strokeColor=none;fillColor=none;" vertex="1" parent="1">
          <mxGeometry x="115" y="170" width="130" height="30" as="geometry" />
        </mxCell>
        <mxCell id="UV3fTgyMfEU3kGWm72Cb-3" value="" style="rounded=0;whiteSpace=wrap;html=1;" vertex="1" parent="1">
          <mxGeometry x="65" y="205" width="90" height="125" as="geometry" />
        </mxCell>
        <mxCell id="UV3fTgyMfEU3kGWm72Cb-4" value="" style="rounded=0;whiteSpace=wrap;html=1;" vertex="1" parent="1">
          <mxGeometry x="185" y="205" width="100" height="45" as="geometry" />
        </mxCell>
        <mxCell id="UV3fTgyMfEU3kGWm72Cb-5" value="" style="rounded=0;whiteSpace=wrap;html=1;" vertex="1" parent="1">
          <mxGeometry x="185" y="280" width="110" height="50" as="geometry" />
        </mxCell>
        <mxCell id="UV3fTgyMfEU3kGWm72Cb-6" value="" style="rounded=0;whiteSpace=wrap;html=1;dashed=1;" vertex="1" parent="1">
          <mxGeometry x="455" y="170" width="380" height="200" as="geometry" />
        </mxCell>
        <mxCell id="UV3fTgyMfEU3kGWm72Cb-8" value="" style="shape=flexArrow;endArrow=classic;html=1;rounded=0;" edge="1" parent="1">
          <mxGeometry width="50" height="50" relative="1" as="geometry">
            <mxPoint x="445" y="269.5" as="sourcePoint" />
            <mxPoint x="375" y="269.5" as="targetPoint" />
          </mxGeometry>
        </mxCell>
        <mxCell id="UV3fTgyMfEU3kGWm72Cb-10" value="DCN硬件" style="rounded=0;whiteSpace=wrap;html=1;" vertex="1" parent="1">
          <mxGeometry x="465" y="230" width="90" height="40" as="geometry" />
        </mxCell>
        <mxCell id="UV3fTgyMfEU3kGWm72Cb-11" value="数据中心网络（DCN）" style="text;html=1;align=center;verticalAlign=middle;resizable=0;points=[];autosize=1;strokeColor=none;fillColor=none;" vertex="1" parent="1">
          <mxGeometry x="570" y="180" width="150" height="30" as="geometry" />
        </mxCell>
        <mxCell id="UV3fTgyMfEU3kGWm72Cb-20" value="ML" style="rounded=0;whiteSpace=wrap;html=1;fillColor=#f5f5f5;fontColor=#333333;strokeColor=#666666;" vertex="1" parent="1">
          <mxGeometry x="65" y="210" width="40" height="20" as="geometry" />
        </mxCell>
        <mxCell id="UV3fTgyMfEU3kGWm72Cb-21" value="HPC" style="rounded=0;whiteSpace=wrap;html=1;fillColor=#f5f5f5;fontColor=#333333;strokeColor=#666666;" vertex="1" parent="1">
          <mxGeometry x="65" y="240" width="40" height="20" as="geometry" />
        </mxCell>
        <mxCell id="UV3fTgyMfEU3kGWm72Cb-22" value="大数据" style="rounded=0;whiteSpace=wrap;html=1;fillColor=#f5f5f5;fontColor=#333333;strokeColor=#666666;" vertex="1" parent="1">
          <mxGeometry x="65" y="270" width="40" height="20" as="geometry" />
        </mxCell>
        <mxCell id="UV3fTgyMfEU3kGWm72Cb-24" value="分布式" style="text;html=1;align=center;verticalAlign=middle;resizable=0;points=[];autosize=1;strokeColor=none;fillColor=none;" vertex="1" parent="1">
          <mxGeometry x="95" y="247.5" width="60" height="30" as="geometry" />
        </mxCell>
        <mxCell id="UV3fTgyMfEU3kGWm72Cb-25" value="" style="rounded=0;whiteSpace=wrap;html=1;fillColor=#f5f5f5;fontColor=#333333;strokeColor=#666666;" vertex="1" parent="1">
          <mxGeometry x="65" y="300" width="40" height="20" as="geometry" />
        </mxCell>
        <mxCell id="UV3fTgyMfEU3kGWm72Cb-26" value="&lt;span style=&quot;color: rgb(51, 51, 51); font-family: Helvetica; font-size: 30px; font-style: normal; font-variant-ligatures: normal; font-variant-caps: normal; font-weight: 400; letter-spacing: normal; orphans: 2; text-align: center; text-indent: 0px; text-transform: none; widows: 2; word-spacing: 0px; -webkit-text-stroke-width: 0px; text-decoration-thickness: initial; text-decoration-style: initial; text-decoration-color: initial; float: none; display: inline !important;&quot;&gt;...&lt;/span&gt;" style="text;whiteSpace=wrap;html=1;" vertex="1" parent="1">
          <mxGeometry x="65" y="280" width="60" height="20" as="geometry" />
        </mxCell>
        <mxCell id="UV3fTgyMfEU3kGWm72Cb-27" value="&lt;span style=&quot;color: rgb(0, 0, 0); font-family: Helvetica; font-size: 12px; font-style: normal; font-variant-ligatures: normal; font-variant-caps: normal; font-weight: 400; letter-spacing: normal; orphans: 2; text-align: center; text-indent: 0px; text-transform: none; widows: 2; word-spacing: 0px; -webkit-text-stroke-width: 0px; background-color: rgb(251, 251, 251); text-decoration-thickness: initial; text-decoration-style: initial; text-decoration-color: initial; float: none; display: inline !important;&quot;&gt;服务编排&lt;/span&gt;" style="text;whiteSpace=wrap;html=1;" vertex="1" parent="1">
          <mxGeometry x="215" y="280" width="50" height="20" as="geometry" />
        </mxCell>
        <mxCell id="UV3fTgyMfEU3kGWm72Cb-28" value="K8S" style="rounded=0;whiteSpace=wrap;html=1;fillColor=#f5f5f5;fontColor=#333333;strokeColor=#666666;" vertex="1" parent="1">
          <mxGeometry x="245" y="310" width="40" height="20" as="geometry" />
        </mxCell>
        <mxCell id="UV3fTgyMfEU3kGWm72Cb-29" value="&lt;span style=&quot;color: rgb(0, 0, 0); font-family: Helvetica; font-size: 12px; font-style: normal; font-variant-ligatures: normal; font-variant-caps: normal; font-weight: 400; letter-spacing: normal; orphans: 2; text-align: center; text-indent: 0px; text-transform: none; widows: 2; word-spacing: 0px; -webkit-text-stroke-width: 0px; background-color: rgb(251, 251, 251); text-decoration-thickness: initial; text-decoration-style: initial; text-decoration-color: initial; float: none; display: inline !important;&quot;&gt;资源虚拟化&lt;/span&gt;" style="text;whiteSpace=wrap;html=1;" vertex="1" parent="1">
          <mxGeometry x="200" y="205" width="70" height="20" as="geometry" />
        </mxCell>
        <mxCell id="UV3fTgyMfEU3kGWm72Cb-30" value="" style="rounded=0;whiteSpace=wrap;html=1;fillColor=#f5f5f5;fontColor=#333333;strokeColor=#666666;" vertex="1" parent="1">
          <mxGeometry x="215" y="230" width="40" height="20" as="geometry" />
        </mxCell>
        <mxCell id="UV3fTgyMfEU3kGWm72Cb-31" value="容器" style="rounded=0;whiteSpace=wrap;html=1;fillColor=#f5f5f5;fontColor=#333333;strokeColor=#666666;" vertex="1" parent="1">
          <mxGeometry x="195" y="310" width="40" height="20" as="geometry" />
        </mxCell>
        <mxCell id="UV3fTgyMfEU3kGWm72Cb-32" value="协议" style="rounded=0;whiteSpace=wrap;html=1;" vertex="1" parent="1">
          <mxGeometry x="575" y="230" width="90" height="40" as="geometry" />
        </mxCell>
        <mxCell id="UV3fTgyMfEU3kGWm72Cb-33" value="SDN" style="rounded=0;whiteSpace=wrap;html=1;" vertex="1" parent="1">
          <mxGeometry x="695" y="230" width="90" height="40" as="geometry" />
        </mxCell>
        <mxCell id="UV3fTgyMfEU3kGWm72Cb-34" value="拓扑工程" style="rounded=0;whiteSpace=wrap;html=1;" vertex="1" parent="1">
          <mxGeometry x="465" y="290" width="90" height="40" as="geometry" />
        </mxCell>
        <mxCell id="UV3fTgyMfEU3kGWm72Cb-35" value="路由工程" style="rounded=0;whiteSpace=wrap;html=1;" vertex="1" parent="1">
          <mxGeometry x="575" y="290" width="90" height="40" as="geometry" />
        </mxCell>
        <mxCell id="UV3fTgyMfEU3kGWm72Cb-36" value="性能指标" style="rounded=0;whiteSpace=wrap;html=1;" vertex="1" parent="1">
          <mxGeometry x="695" y="290" width="90" height="40" as="geometry" />
        </mxCell>
        <mxCell id="UV3fTgyMfEU3kGWm72Cb-37" value="可重构DCN方案" style="swimlane;whiteSpace=wrap;html=1;" vertex="1" parent="1">
          <mxGeometry x="85" y="410" width="170" height="150" as="geometry">
            <mxRectangle x="130" y="400" width="140" height="30" as="alternateBounds" />
          </mxGeometry>
        </mxCell>
        <mxCell id="UV3fTgyMfEU3kGWm72Cb-39" value="瓶颈、挑战" style="shape=document;whiteSpace=wrap;html=1;boundedLbl=1;" vertex="1" parent="UV3fTgyMfEU3kGWm72Cb-37">
          <mxGeometry x="25" y="35" width="120" height="45" as="geometry" />
        </mxCell>
        <mxCell id="UV3fTgyMfEU3kGWm72Cb-43" value="" style="shape=flexArrow;endArrow=classic;html=1;rounded=0;" edge="1" parent="UV3fTgyMfEU3kGWm72Cb-37">
          <mxGeometry width="50" height="50" relative="1" as="geometry">
            <mxPoint x="100" y="100" as="sourcePoint" />
            <mxPoint x="100" y="70" as="targetPoint" />
          </mxGeometry>
        </mxCell>
        <mxCell id="UV3fTgyMfEU3kGWm72Cb-44" value="高性能低复杂度的&lt;br&gt;慢切换+阈值路由方案" style="text;html=1;strokeColor=none;fillColor=none;align=center;verticalAlign=middle;whiteSpace=wrap;rounded=0;" vertex="1" parent="UV3fTgyMfEU3kGWm72Cb-37">
          <mxGeometry x="17.5" y="110" width="135" height="30" as="geometry" />
        </mxCell>
        <mxCell id="UV3fTgyMfEU3kGWm72Cb-45" value="可重构DCN理论分析" style="swimlane;whiteSpace=wrap;html=1;" vertex="1" parent="1">
          <mxGeometry x="285" y="410" width="170" height="150" as="geometry">
            <mxRectangle x="130" y="400" width="140" height="30" as="alternateBounds" />
          </mxGeometry>
        </mxCell>
        <mxCell id="UV3fTgyMfEU3kGWm72Cb-48" value="分析方法、理论证明、近似解快速评估" style="text;html=1;strokeColor=none;fillColor=none;align=center;verticalAlign=middle;whiteSpace=wrap;rounded=0;" vertex="1" parent="UV3fTgyMfEU3kGWm72Cb-45">
          <mxGeometry x="17.5" y="90" width="135" height="30" as="geometry" />
        </mxCell>
        <mxCell id="UV3fTgyMfEU3kGWm72Cb-49" value="吞吐、规模&lt;br&gt;NP-hard求解" style="shape=document;whiteSpace=wrap;html=1;boundedLbl=1;" vertex="1" parent="UV3fTgyMfEU3kGWm72Cb-45">
          <mxGeometry x="25" y="35" width="120" height="45" as="geometry" />
        </mxCell>
        <mxCell id="UV3fTgyMfEU3kGWm72Cb-50" value="超快速网络仿真器" style="swimlane;whiteSpace=wrap;html=1;" vertex="1" parent="1">
          <mxGeometry x="505" y="410" width="170" height="150" as="geometry">
            <mxRectangle x="130" y="400" width="140" height="30" as="alternateBounds" />
          </mxGeometry>
        </mxCell>
        <mxCell id="UV3fTgyMfEU3kGWm72Cb-51" value="超快速大规模流网络仿真器" style="text;html=1;strokeColor=none;fillColor=none;align=center;verticalAlign=middle;whiteSpace=wrap;rounded=0;" vertex="1" parent="UV3fTgyMfEU3kGWm72Cb-50">
          <mxGeometry x="8.75" y="100" width="152.5" height="30" as="geometry" />
        </mxCell>
        <mxCell id="UV3fTgyMfEU3kGWm72Cb-52" value="大规模仿真太慢" style="shape=document;whiteSpace=wrap;html=1;boundedLbl=1;" vertex="1" parent="UV3fTgyMfEU3kGWm72Cb-50">
          <mxGeometry x="25" y="35" width="120" height="45" as="geometry" />
        </mxCell>
        <mxCell id="UV3fTgyMfEU3kGWm72Cb-54" value="" style="endArrow=none;dashed=1;html=1;rounded=0;" edge="1" parent="1">
          <mxGeometry width="50" height="50" relative="1" as="geometry">
            <mxPoint x="5" y="380" as="sourcePoint" />
            <mxPoint x="845" y="380" as="targetPoint" />
          </mxGeometry>
        </mxCell>
        <mxCell id="UV3fTgyMfEU3kGWm72Cb-55" value="" style="shape=flexArrow;endArrow=classic;html=1;rounded=0;exitX=0.5;exitY=0;exitDx=0;exitDy=0;" edge="1" parent="1" source="UV3fTgyMfEU3kGWm72Cb-37">
          <mxGeometry width="50" height="50" relative="1" as="geometry">
            <mxPoint x="215" y="350" as="sourcePoint" />
            <mxPoint x="170" y="380" as="targetPoint" />
          </mxGeometry>
        </mxCell>
        <mxCell id="UV3fTgyMfEU3kGWm72Cb-56" value="" style="shape=flexArrow;endArrow=classic;html=1;rounded=0;exitX=0.5;exitY=0;exitDx=0;exitDy=0;" edge="1" parent="1" source="UV3fTgyMfEU3kGWm72Cb-45">
          <mxGeometry width="50" height="50" relative="1" as="geometry">
            <mxPoint x="340" y="410" as="sourcePoint" />
            <mxPoint x="370" y="380" as="targetPoint" />
          </mxGeometry>
        </mxCell>
        <mxCell id="UV3fTgyMfEU3kGWm72Cb-57" value="" style="shape=flexArrow;endArrow=classic;html=1;rounded=0;exitX=0.5;exitY=0;exitDx=0;exitDy=0;" edge="1" parent="1" source="UV3fTgyMfEU3kGWm72Cb-50">
          <mxGeometry width="50" height="50" relative="1" as="geometry">
            <mxPoint x="380" y="420" as="sourcePoint" />
            <mxPoint x="590" y="380" as="targetPoint" />
          </mxGeometry>
        </mxCell>
      </root>
    </mxGraphModel>
  </diagram>
</mxfile>
